<?xml version="1.0" ?><svg height="32" id="svg5" version="1.1" viewBox="0 0 32 32" width="32" xmlns="http://www.w3.org/2000/svg" xmlns:svg="http://www.w3.org/2000/svg"><defs id="defs2"/><g id="layer1" transform="translate(-252,-52)"><path d="m 262,54 c -1.64501,0 -3,1.354995 -3,3 v 22 c 0,1.645005 1.35499,3 3,3 h 12 c 1.64501,0 3,-1.354995 3,-3 v -6 a 1,1 0 0 0 -1,-1 1,1 0 0 0 -1,1 v 3 H 261 V 57 c 0,-0.564127 0.43587,-1 1,-1 h 12 c 0.56413,0 1,0.435873 1,1 v 6 a 1,1 0 0 0 1,1 1,1 0 0 0 1,-1 v -6 c 0,-1.645005 -1.35499,-3 -3,-3 z m -1,24 h 14 v 1 c 0,0.564127 -0.43587,1 -1,1 h -12 c -0.56413,0 -1,-0.435873 -1,-1 z" id="path4836" style="color:#000000;fill:#002cba;fill-opacity:1;fill-rule:evenodd;stroke-linecap:round;stroke-linejoin:round;stroke-miterlimit:4.1;-inkscape-stroke:none"/><path d="m 266,57 a 1,1 0 0 0 -1,1 1,1 0 0 0 1,1 h 4 a 1,1 0 0 0 1,-1 1,1 0 0 0 -1,-1 z" id="path4838" style="color:#000000;fill:#002cba;fill-opacity:1;fill-rule:evenodd;stroke-linecap:round;stroke-linejoin:round;stroke-miterlimit:4.1;-inkscape-stroke:none"/><path d="m 269,62 c -1.64501,0 -3,1.354994 -3,3 v 6 c 0,1.645006 1.35499,3 3,3 h 10 c 1.64501,0 3,-1.354994 3,-3 v -6 c 0,-1.645006 -1.35499,-3 -3,-3 z m 1.12109,2 h 7.75782 L 274,66.771484 Z m -2.11718,0.947266 5.41406,3.867187 c 0.34805,0.24908 0.81601,0.24908 1.16406,0 l 5.41406,-3.867187 C 279.99697,64.964974 280,64.982021 280,65 v 6 c 0,0.564128 -0.43587,1 -1,1 h -10 c -0.56413,0 -1,-0.435872 -1,-1 v -6 c 0,-0.01798 0.003,-0.03503 0.004,-0.05273 z" id="rect4853" style="color:#000000;fill:#00c89f;fill-opacity:1;fill-rule:evenodd;stroke-linecap:round;stroke-linejoin:round;stroke-miterlimit:4.1;-inkscape-stroke:none"/></g></svg>