<svg width="384" height="228" viewBox="0 0 384 228" fill="none" xmlns="http://www.w3.org/2000/svg">
<mask id="mask0_185_6604" style="mask-type:luminance" maskUnits="userSpaceOnUse" x="0" y="0" width="384" height="228">
<path d="M383.216 0.281006H0V227.4H383.216V0.281006Z" fill="white"/>
</mask>
<g mask="url(#mask0_185_6604)">
<path d="M331.506 211.164C321.937 211.164 312.368 211.141 302.799 211.171C292.306 211.202 282.183 210.045 273.17 218.892C266.625 225.319 256.214 225.769 246.878 226.348C233.867 227.154 220.806 225.661 207.788 227.323C200.512 228.252 195.64 220.614 190.199 220.242C185.523 219.923 180.663 228.268 173.581 227.23C159.721 225.2 145.767 226.984 131.918 225.835C119.943 224.841 108.257 222.55 99.4782 213.311C96.7982 210.492 93.6542 211.229 90.5782 211.224C63.0332 211.175 35.4862 211.275 7.94022 211.088C5.08122 211.069 -0.19178 213.334 0.000219832 207.74C0.15522 203.214 4.90022 204.797 7.75922 204.786C33.2752 204.704 58.7942 204.68 84.3082 204.901C90.1562 204.953 93.0702 204.838 91.3892 197.101C88.2212 182.526 95.0632 170.042 102.865 158.332C105.132 154.932 106.296 152.564 103.742 148.488C85.9292 120.055 87.9362 91.516 104.518 63.406C107.273 58.737 107.461 55.982 103.818 51.597C92.5732 38.039 94.9322 18.559 108.5 7.519C111.737 4.82005 115.488 2.80468 119.525 1.59442C123.562 0.384151 127.802 0.00406945 131.99 0.477091C136.178 0.950112 140.227 2.26644 143.893 4.34669C147.558 6.42694 150.765 9.22801 153.318 12.581C156.469 16.609 158.751 16.792 163.326 15.287C192.026 5.847 219.39 9.458 244.98 25.259C249.48 28.038 252.106 28.629 256.791 25.159C260.138 22.5972 263.97 20.7413 268.055 19.7035C272.14 18.6657 276.393 18.4677 280.557 19.1213C284.721 19.775 288.708 21.2668 292.279 23.5064C295.849 25.746 298.928 28.6869 301.329 32.151C311.646 46.663 308.529 66.019 293.509 76.419C289.143 79.442 289.209 81.733 290.517 86.195C297.575 110.262 296.693 133.582 282.308 155.152C280.437 157.957 280.46 160.16 282.141 162.996C289.007 174.577 292.411 186.824 288.507 200.264C286.488 207.216 292.146 204.64 294.607 204.656C320.121 204.83 345.639 204.726 371.156 204.698C372.894 204.698 374.643 204.585 376.373 204.708C379.067 204.9 383 203.636 383.211 207.895C383.441 212.58 379.284 211.135 376.744 211.154C361.667 211.276 346.588 211.215 331.51 211.215L331.506 211.164ZM194.442 16.013C170.501 15.913 149.658 24.157 131.624 39.565C83.7882 80.435 86.0852 140.842 136.562 173.226C140.382 175.844 144.84 177.377 149.462 177.662C159.803 178.175 169.077 181.676 177.923 187.162C185.342 191.762 194.14 192.822 201.669 188.123C213.027 181.034 225.024 178.469 238.105 179.238C241.205 179.421 244.337 180.338 247.444 178.612C269.654 166.278 285.327 148.817 288.429 122.934C294.955 68.497 249.229 16.834 194.442 16.018M184.551 209.881C184.799 205.564 183.051 202.07 180.241 198.912C168.65 185.88 153.77 182.466 137.159 184.322C132.791 184.81 128.371 186.465 127.151 179.855C126.277 175.121 112.851 159.003 110.695 160.105C104.24 163.405 103.606 170.893 100.195 176.425C99.5711 177.726 99.111 179.1 98.8252 180.515C93.0522 199.281 103.8 214.837 123.178 218.234C139.861 221.158 156.66 217.911 173.298 220.956C180.211 222.22 184.658 216.831 184.551 209.886M232.611 219.72C238.426 219.72 243.653 219.962 248.849 219.68C275.875 218.21 288.619 201.38 281.571 176.306C280.422 172.224 279.13 166.798 275.366 165.37C271.166 163.77 270.266 169.792 267.717 172.254C262.912 176.888 259.145 183.268 254.541 186.925C250.806 189.889 241.612 185.619 234.8 185.225C222.565 184.517 202.055 191.125 197.187 203.625C195.696 207.456 193.087 211.574 196.997 215.715C200.542 219.472 204.686 222.623 209.922 221.136C217.681 218.936 225.464 220.268 232.611 219.72ZM102.783 32.311C102.383 35.634 103.868 38.862 105.092 42.032C108.354 50.466 111.167 50.971 117.609 44.457C126.109 35.857 134.368 26.993 145.86 22.134C150.84 20.028 149.413 17.405 146.503 14.328C140.087 7.542 129.294 4.562 121.235 7.655C109.741 12.068 103.007 20.971 102.783 32.311ZM301.065 50.627C301.265 32.562 280.62 19.663 264.505 27.496C259.405 29.977 257.346 33.286 262.371 38.053C269.701 45.006 276.371 52.473 281.001 61.604C282.851 65.252 284.326 71.26 287.993 71.295C293.94 71.353 296.533 65.1 298.974 60.272C300.494 57.266 301.596 53.848 301.065 50.627Z" fill="#171717"/>
<path d="M194.443 16.004C249.234 16.827 294.96 68.491 288.435 122.928C285.335 148.812 269.66 166.272 247.448 178.606C244.341 180.332 241.213 179.415 238.111 179.232C225.031 178.463 213.033 181.032 201.675 188.116C194.144 192.816 185.346 191.755 177.927 187.157C169.084 181.675 159.808 178.174 149.468 177.657C144.846 177.372 140.388 175.84 136.568 173.223C86.0931 140.839 83.7961 80.432 131.632 39.563C149.659 24.157 170.502 15.915 194.443 16.004ZM157.329 76.216C138.976 76.439 123.693 92.416 124.429 110.607C124.879 121.74 133.069 131.235 143.774 133.035C153.589 134.684 158.534 131.135 163.841 118.435C165.884 113.544 168.278 109.189 173.541 106.84C177.961 104.866 179.387 100.758 179.541 96.133C179.933 84.261 170.799 76.056 157.326 76.218M261.007 119.206C260.845 100.406 247.968 86.506 229.645 85.37C221.982 84.896 216.08 87.957 212.322 94.595C209.339 99.864 207.456 106.143 212.222 110.666C218.07 116.212 219.181 122.859 220.391 130.011C222.396 141.86 230.691 146.955 242.486 144.035C254.348 141.099 261.115 132.025 261.003 119.206M192.23 106.306C189.337 106.444 185.887 105.746 183.845 108.986C181.584 112.576 183.367 115.852 185.665 118.41C188.313 121.355 189.822 124.321 187.001 127.48C184.401 130.39 180.912 130.252 177.481 128.348C175.22 127.093 172.454 123.264 170.358 127.159C168.409 130.784 172.604 133.289 175.294 133.786C184.944 135.586 194.683 136.867 204.47 137.624C207.106 137.824 212.076 136.613 211.417 132.756C210.493 127.356 206.417 131.335 203.831 131.766C199.979 132.406 196.607 131.799 195.024 128.178C193.664 125.066 194.63 122.356 198.011 120.25C201.204 118.261 203.92 115.05 202.131 110.814C200.393 106.697 196.121 106.924 192.231 106.307" fill="#FCFCFC"/>
<path d="M184.558 209.884C184.658 216.831 180.211 222.22 173.298 220.956C156.661 217.912 139.863 221.156 123.178 218.236C103.798 214.836 93.0542 199.287 98.8202 180.52C99.107 179.106 99.5671 177.732 100.19 176.43C103.604 170.898 104.239 163.405 110.695 160.112C112.854 159.012 126.276 175.126 127.151 179.86C128.372 186.47 132.79 184.815 137.158 184.329C153.771 182.474 168.651 185.886 180.24 198.918C183.049 202.076 184.798 205.572 184.557 209.885" fill="#4D4D4D"/>
<path d="M232.613 219.72C225.464 220.267 217.683 218.932 209.924 221.136C204.688 222.623 200.542 219.473 196.997 215.717C193.088 211.576 195.697 207.456 197.189 203.625C202.057 191.125 222.567 184.517 234.802 185.225C241.614 185.619 250.808 189.889 254.541 186.925C259.148 183.269 262.914 176.889 267.719 172.254C270.272 169.792 271.166 163.775 275.368 165.37C279.132 166.798 280.424 172.224 281.568 176.306C288.617 201.381 275.868 218.206 248.848 219.68C243.648 219.962 238.425 219.72 232.61 219.72" fill="#4D4D4D"/>
<path d="M102.783 32.313C103.006 20.971 109.742 12.069 121.236 7.656C129.295 4.561 140.088 7.543 146.504 14.329C149.414 17.405 150.842 20.029 145.861 22.135C134.368 26.993 126.114 35.859 117.606 44.459C111.163 50.973 108.351 50.467 105.089 42.032C103.863 38.864 102.381 35.632 102.779 32.313" fill="#4D4D4D"/>
<path d="M301.062 50.628C301.594 53.848 300.492 57.268 298.971 60.274C296.53 65.102 293.937 71.355 287.99 71.297C284.323 71.262 282.848 65.254 280.998 61.606C276.367 52.475 269.698 45.006 262.368 38.055C257.343 33.288 259.399 29.979 264.502 27.498C280.616 19.664 301.26 32.562 301.062 50.628Z" fill="#4D4D4D"/>
<path d="M157.328 76.218C170.802 76.054 179.939 84.261 179.545 96.132C179.39 100.758 177.964 104.866 173.545 106.839C168.278 109.189 165.885 113.539 163.845 118.434C158.539 131.134 153.594 134.684 143.778 133.034C133.072 131.234 124.878 121.741 124.435 110.606C123.698 92.413 138.984 76.438 157.335 76.217M158.555 100.965C158.119 95.943 155.537 93.044 150.323 93.165C145.56 93.28 142.958 95.988 142.756 100.687C142.514 106.392 146.428 109.396 151.144 109.701C156.317 110.034 158.117 105.673 158.554 100.96" fill="#4D4D4D"/>
<path d="M261.011 119.204C261.123 132.023 254.356 141.097 242.494 144.033C230.694 146.954 222.404 141.859 220.399 130.009C219.189 122.857 218.078 116.209 212.23 110.666C207.459 106.143 209.343 99.866 212.33 94.594C216.087 87.956 221.989 84.894 229.653 85.369C247.976 86.501 260.853 100.407 261.015 119.205M236.824 121.024C241.943 119.957 244.902 116.194 244.984 111.464C244.953 109.404 244.107 107.44 242.632 106.002C241.156 104.565 239.17 103.771 237.11 103.794C231.87 103.656 228.301 107.194 228.284 112.367C228.267 117.19 232.026 119.715 236.824 121.024Z" fill="#4D4D4D"/>
<path d="M192.238 106.309C196.128 106.926 200.4 106.7 202.138 110.816C203.927 115.049 201.21 118.263 198.018 120.252C194.637 122.358 193.671 125.068 195.031 128.18C196.614 131.801 199.986 132.408 203.838 131.768C206.429 131.337 210.5 127.358 211.424 132.758C212.083 136.615 207.114 137.825 204.477 137.626C194.69 136.869 184.951 135.588 175.301 133.788C172.611 133.288 168.416 130.788 170.365 127.161C172.465 123.261 175.226 127.095 177.488 128.35C180.919 130.25 184.412 130.392 187.008 127.482C189.829 124.323 188.321 121.357 185.672 118.412C183.372 115.854 181.59 112.578 183.852 108.988C185.894 105.748 189.344 106.446 192.237 106.308" fill="#171717"/>
<path d="M158.559 100.963C158.121 105.676 156.322 110.037 151.149 109.704C146.433 109.399 142.518 106.395 142.761 100.69C142.961 95.99 145.561 93.283 150.328 93.168C155.541 93.042 158.128 95.942 158.56 100.968" fill="#171717"/>
<path d="M236.82 121.024C232.02 119.715 228.262 117.19 228.28 112.367C228.297 107.196 231.867 103.656 237.106 103.794C239.166 103.771 241.152 104.565 242.628 106.002C244.104 107.44 244.95 109.404 244.98 111.464C244.898 116.194 241.939 119.957 236.82 121.024Z" fill="#171717"/>
<path d="M155.382 98.542C155.382 98.9528 155.26 99.3544 155.032 99.6959C154.804 100.037 154.479 100.304 154.1 100.461C153.72 100.618 153.303 100.659 152.9 100.579C152.497 100.499 152.127 100.301 151.836 100.011C151.546 99.7202 151.348 99.3501 151.268 98.9472C151.188 98.5443 151.229 98.1267 151.386 97.7472C151.543 97.3676 151.81 97.0433 152.151 96.815C152.493 96.5868 152.894 96.465 153.305 96.465C153.578 96.4649 153.848 96.5185 154.1 96.6228C154.352 96.7272 154.581 96.8801 154.774 97.073C154.967 97.2659 155.12 97.495 155.224 97.747C155.329 97.9991 155.382 98.2692 155.382 98.542Z" fill="white"/>
<path d="M241.293 109.722C241.293 110.133 241.171 110.534 240.943 110.876C240.715 111.217 240.391 111.484 240.011 111.641C239.631 111.798 239.214 111.839 238.811 111.759C238.408 111.679 238.038 111.481 237.747 111.191C237.457 110.9 237.259 110.53 237.179 110.127C237.099 109.724 237.14 109.307 237.297 108.927C237.454 108.548 237.721 108.223 238.062 107.995C238.404 107.767 238.805 107.645 239.216 107.645C239.489 107.645 239.759 107.698 240.011 107.803C240.263 107.907 240.492 108.06 240.685 108.253C240.878 108.446 241.031 108.675 241.135 108.927C241.24 109.179 241.293 109.449 241.293 109.722Z" fill="white"/>
</g>
</svg>
